<?xml version="1.0" standalone="no"?>
<!DOCTYPE svg PUBLIC "-//W3C//DTD SVG 20010904//EN"
 "http://www.w3.org/TR/2001/REC-SVG-20010904/DTD/svg10.dtd">
<svg version="1.0" xmlns="http://www.w3.org/2000/svg"
 width="360.000000pt" height="360.000000pt" viewBox="0 0 360.000000 360.000000"
 preserveAspectRatio="xMidYMid meet">
<metadata>
Created by potrace 1.14, written by Peter Selinger 2001-2017
</metadata>
<g transform="translate(0.000000,360.000000) scale(0.100000,-0.100000)"
fill="#000000" stroke="none">
<path d="M1634 3250 c-69 -14 -107 -35 -165 -88 -50 -45 -66 -54 -155 -78
-164 -46 -269 -134 -295 -248 -16 -72 -5 -119 37 -165 l34 -38 -31 -7 c-79
-16 -120 -2 -178 57 -25 26 -35 47 -38 81 -6 47 -16 59 -27 30 -11 -29 -6 -72
15 -121 29 -69 64 -110 104 -124 19 -7 35 -15 35 -19 0 -3 26 -3 57 -2 32 2
54 0 50 -5 -5 -4 -25 -9 -45 -9 -135 -5 -143 -59 -9 -63 20 0 37 -5 37 -11 0
-10 -67 -58 -119 -84 -65 -34 -2 -41 95 -11 20 6 20 4 16 -95 -4 -99 12 -271
30 -319 6 -17 4 -28 -6 -40 -21 -24 -22 -50 -2 -109 11 -34 29 -61 47 -75 17
-12 44 -44 60 -71 35 -57 55 -80 164 -191 66 -68 96 -90 175 -129 104 -51 238
-85 333 -86 44 0 57 -3 57 -15 0 -10 -10 -15 -33 -15 -21 0 -104 -36 -242
-106 -116 -58 -214 -109 -220 -114 -5 -4 -27 -13 -47 -19 -24 -8 -42 -22 -50
-39 -13 -25 -23 -29 -198 -64 -129 -25 -187 -33 -192 -25 -3 6 -9 49 -13 96
-3 47 -10 127 -15 178 -16 146 -13 230 8 251 20 20 27 98 11 108 -6 3 -88 7
-182 8 -136 2 -178 -1 -199 -13 -25 -14 -28 -13 -46 9 -23 29 -57 23 -105 -20
-26 -23 -44 -30 -83 -31 -27 -1 -58 1 -69 5 -31 10 -79 -26 -134 -101 -62 -84
-70 -124 -41 -190 11 -26 32 -59 44 -73 13 -14 40 -51 60 -82 20 -32 50 -65
67 -73 16 -9 45 -37 64 -63 18 -26 57 -68 84 -94 50 -45 51 -46 51 -105 0 -64
27 -182 60 -257 15 -35 28 -50 55 -61 38 -16 38 -22 0 -95 -10 -20 -15 -59
-15 -130 0 -93 1 -100 20 -100 18 0 20 7 20 72 l0 71 23 -21 c36 -34 127 -71
218 -88 46 -9 92 -20 101 -25 21 -11 455 -12 460 -1 2 4 39 18 83 30 44 13
116 41 159 62 43 22 75 36 70 31 -35 -30 -120 -85 -161 -104 l-48 -22 59 -3
c33 -2 62 1 65 5 3 5 38 31 76 58 82 57 282 254 345 338 38 51 47 58 69 52 82
-20 256 -165 304 -254 l27 -49 -42 -34 c-24 -19 -67 -51 -95 -72 -29 -21 -53
-40 -53 -42 0 -2 183 -4 406 -4 l407 0 -7 73 c-4 39 -11 155 -16 257 -12 240
-47 447 -91 538 -42 86 -129 211 -177 254 -50 45 -115 83 -170 99 -43 12 -59
31 -76 86 -6 20 1 26 61 56 37 19 110 65 160 101 93 67 93 67 145 60 45 -6 50
-5 45 9 -4 10 1 18 14 22 14 5 17 10 10 24 -8 14 -2 20 39 34 36 13 62 33 103
80 69 78 95 130 103 204 4 32 17 76 30 99 13 23 33 76 45 119 18 69 19 84 9
143 -7 37 -11 111 -10 165 1 99 -10 158 -37 189 -13 14 -12 17 7 23 41 13 140
167 140 217 0 31 -19 17 -58 -42 -22 -31 -52 -61 -74 -73 -35 -18 -39 -18 -73
-1 -20 9 -43 26 -51 38 -110 159 -151 193 -362 302 l-133 69 -97 0 c-85 0
-101 3 -129 23 -18 12 -57 34 -88 48 -48 22 -70 26 -145 25 -89 0 -158 -11
-203 -32 -21 -9 -36 -7 -91 15 -73 29 -168 40 -232 26z m-336 -716 c54 -111
130 -165 233 -167 60 -2 84 8 59 23 -10 7 14 10 70 10 75 0 91 4 137 29 l53
29 27 -39 c16 -21 33 -39 38 -39 6 0 27 -14 47 -30 105 -87 252 -93 368 -16
l38 25 38 -84 c35 -76 44 -87 99 -123 77 -52 174 -77 261 -67 l61 6 21 -39 20
-40 -96 -7 c-123 -8 -283 -30 -366 -50 -62 -14 -67 -14 -99 5 -19 11 -60 25
-93 32 -33 6 -71 22 -87 35 -16 12 -33 23 -38 23 -23 0 -78 -30 -88 -47 -6
-13 -29 -23 -71 -31 -37 -7 -76 -22 -96 -37 -32 -25 -35 -25 -106 -14 -39 6
-96 9 -126 7 l-54 -5 6 76 c3 42 8 91 12 109 5 25 3 32 -9 32 -20 0 -47 -78
-54 -162 -6 -66 -7 -68 -39 -78 -29 -10 -38 -9 -60 9 -15 12 -38 21 -51 21
-15 0 -37 14 -57 35 -19 19 -42 35 -53 35 -20 0 -55 -30 -84 -71 -28 -41 -46
-19 -54 68 -13 139 -14 136 22 146 26 8 47 5 99 -12 37 -12 69 -19 73 -16 10
11 -47 53 -86 64 -20 6 -56 7 -81 4 l-45 -6 5 99 5 99 64 65 c35 36 73 82 84
103 11 20 22 37 25 37 3 0 16 -21 28 -46z m1652 -573 c68 -14 90 -46 90 -130
0 -59 -4 -73 -27 -103 -38 -47 -60 -68 -71 -68 -6 0 -12 -4 -14 -10 -1 -5 -41
-18 -87 -28 -90 -19 -120 -42 -56 -42 31 0 34 -2 22 -14 -7 -8 -40 -31 -73
-51 -32 -21 -86 -56 -119 -78 -182 -123 -354 -167 -648 -167 -243 0 -362 28
-503 121 -73 47 -154 130 -154 156 0 16 7 18 55 16 48 -2 55 0 55 17 0 26 -21
36 -34 17 -9 -11 -16 -13 -31 -5 -13 8 -24 7 -37 -1 -10 -6 -18 -7 -18 -2 0 5
-15 14 -32 20 -19 6 -42 26 -55 45 l-22 34 66 12 c103 18 138 40 161 102 16
44 25 54 49 59 29 6 31 4 42 -44 23 -101 72 -147 153 -147 39 0 108 29 108 46
0 3 -29 3 -64 -1 -60 -7 -65 -6 -96 22 -22 20 -36 45 -46 83 -7 29 -12 55 -10
57 8 8 105 11 183 6 80 -6 82 -6 88 -34 8 -34 51 -73 101 -89 52 -18 274 -7
336 15 43 15 49 21 59 58 6 23 13 47 14 54 6 20 140 42 400 68 164 16 161 16
215 6z m-682 -17 c17 -12 22 -25 22 -59 0 -55 -16 -66 -117 -89 -142 -32 -267
-12 -303 47 -11 18 -20 39 -20 48 0 19 38 38 95 46 42 5 42 5 49 -29 8 -46 56
-91 96 -91 49 0 85 42 84 98 l-1 45 36 0 c20 0 47 -7 59 -16z m-208 -34 c0
-16 -2 -30 -5 -30 -8 0 -23 44 -18 53 10 17 23 5 23 -23z m-667 -41 c8 -31
-12 -88 -36 -104 -25 -16 -158 -40 -179 -32 -17 6 -53 120 -44 136 11 18 36
13 36 -8 0 -27 45 -71 73 -71 28 0 87 60 87 89 0 25 56 16 63 -10z m-163 -5
c0 -8 -4 -14 -10 -14 -5 0 -10 9 -10 21 0 11 5 17 10 14 6 -3 10 -13 10 -21z
m-566 -514 c18 -166 31 -874 16 -865 -6 3 -10 36 -10 73 0 37 -5 85 -10 107
-13 53 -35 702 -26 740 10 40 22 18 30 -55z m85 17 c0 -29 -3 -46 -6 -39 -2 6
-9 9 -15 6 -7 -4 -8 9 -4 37 4 31 3 38 -3 24 -7 -14 -10 -16 -10 -4 -1 18 19
40 31 33 4 -3 8 -29 7 -57z m-172 11 c-3 -8 -6 -5 -6 6 -1 11 2 17 5 13 3 -3
4 -12 1 -19z m-333 3 c3 -5 -5 -12 -18 -15 -14 -3 -35 -21 -47 -39 -12 -17
-34 -44 -47 -59 -19 -21 -22 -28 -10 -28 8 0 35 23 60 50 46 51 64 58 99 40
25 -14 24 -27 -3 -36 -30 -9 -78 -43 -78 -55 0 -5 17 0 38 11 43 22 102 36
102 24 0 -4 -12 -20 -27 -36 -35 -36 -23 -46 22 -18 61 37 92 4 35 -38 -16
-13 -30 -29 -30 -37 0 -19 14 -19 30 0 21 26 30 17 30 -32 l0 -48 -20 25 c-28
37 -34 18 -9 -32 18 -35 23 -64 26 -157 l4 -114 -40 34 c-22 19 -43 43 -46 55
-4 12 -24 31 -46 44 -26 14 -56 46 -84 89 -24 36 -59 85 -76 108 -41 54 -41
87 1 155 60 95 115 140 134 109z m242 -23 c14 -26 15 -51 9 -152 -5 -98 -3
-130 9 -165 11 -31 16 -76 15 -150 -1 -58 1 -135 5 -171 3 -36 8 -92 11 -125
3 -33 13 -93 22 -132 17 -75 12 -102 -13 -68 -13 18 -49 127 -74 225 -17 65
-30 284 -33 528 -2 224 -1 242 15 242 10 0 25 -14 34 -32z m1995 -97 c11 -27
32 -59 45 -72 13 -12 24 -28 24 -35 0 -58 -219 -181 -383 -215 -107 -22 -182
-24 -217 -6 -30 15 -31 49 -5 117 13 33 16 62 12 111 l-6 66 92 6 c173 11 278
27 335 51 31 13 62 24 69 25 7 0 22 -21 34 -48z m-1631 -228 c10 -203 5 -273
-20 -273 -4 0 -10 33 -14 73 -7 91 -7 396 1 421 13 45 23 -20 33 -221z m-85
-164 c5 -262 4 -306 -8 -306 -11 0 -16 20 -21 75 -8 103 -8 576 1 599 14 35
21 -59 28 -368z m-161 -193 c4 -110 3 -144 -5 -126 -11 27 -29 239 -28 335 l1
60 13 -59 c7 -33 16 -127 19 -210z m770 138 c16 -64 49 -295 42 -301 -20 -20
-517 -50 -560 -33 -21 8 -24 17 -30 111 -6 88 -5 104 9 112 9 4 30 24 47 42
23 26 41 36 77 40 117 16 319 58 351 75 19 10 38 18 41 19 4 1 14 -29 23 -65z
m-767 -341 c-3 -10 -5 -4 -5 12 0 17 2 24 5 18 2 -7 2 -21 0 -30z m803 -23 c0
-5 -23 -10 -51 -10 -31 0 -48 4 -44 10 3 6 26 10 51 10 24 0 44 -4 44 -10z
m-506 -19 c6 -9 -62 -26 -71 -17 -3 2 -2 9 2 15 8 13 62 15 69 2z m-190 -23
c9 -12 16 -26 16 -29 0 -4 -27 -16 -60 -27 l-60 -21 6 26 c8 32 44 71 66 72 9
1 24 -9 32 -21z m814 -37 c100 -23 137 -38 190 -78 27 -20 33 -31 30 -56 -2
-26 -11 -36 -46 -56 -42 -22 -45 -23 -80 -7 -23 10 -62 15 -102 15 -125 -2
-530 10 -540 16 -6 3 -43 3 -83 -1 -59 -7 -66 -9 -37 -14 21 -3 35 -11 35 -19
0 -14 -72 -41 -112 -41 -13 0 -24 -8 -28 -20 -3 -11 -15 -20 -26 -20 -24 0
-24 11 -1 41 28 36 34 59 16 59 -24 0 -71 -31 -82 -54 -8 -19 -11 -18 -52 20
l-43 40 14 38 c7 20 21 44 30 52 21 19 254 91 334 103 33 5 157 8 275 7 179
-2 231 -7 308 -25z"/>
<path d="M2060 2200 c-57 -10 -113 -34 -130 -55 -22 -26 -4 -28 61 -6 76 25
192 28 246 6 53 -22 71 -20 47 6 -42 47 -132 67 -224 49z"/>
<path d="M2037 1663 c-13 -12 -7 -62 9 -78 23 -23 39 -13 37 24 -2 43 -27 73
-46 54z"/>
<path d="M2157 1654 c-14 -14 -7 -62 10 -68 23 -9 35 6 31 40 -3 28 -26 43
-41 28z"/>
<path d="M2264 1626 c-11 -44 25 -65 46 -27 17 33 12 51 -15 51 -18 0 -26 -7
-31 -24z"/>
<path d="M1795 1611 c-84 -24 -149 -61 -153 -88 -2 -12 7 -45 19 -74 26 -60
91 -109 145 -109 43 0 98 51 113 105 14 50 14 125 1 159 -11 31 -37 33 -125 7z
m85 -60 c0 -37 -2 -39 -37 -46 -21 -4 -57 -22 -79 -41 -46 -37 -48 -36 -79 25
-9 18 -13 37 -8 41 12 13 155 59 181 60 19 0 22 -5 22 -39z"/>
</g>
</svg>
